<?xml version="1.0" encoding="utf-8"?>
<!-- Generator: Adobe Illustrator 24.0.0, SVG Export Plug-In . SVG Version: 6.00 Build 0)  -->
<svg version="1.1" id="Capa_1" xmlns="http://www.w3.org/2000/svg" xmlns:xlink="http://www.w3.org/1999/xlink" x="0px" y="0px"
	 viewBox="0 0 237 119.3" style="enable-background:new 0 0 237 119.3;" xml:space="preserve">
<style type="text/css">
	.st0{fill-rule:evenodd;clip-rule:evenodd;fill:#F3912D;}
	.st1{fill:#E31119;}
	.st2{fill:#1D1D1B;}
	.st3{fill:#0B233F;}
	.st4{fill-rule:evenodd;clip-rule:evenodd;fill:#0B233F;}
	.st5{fill-rule:evenodd;clip-rule:evenodd;fill:#C30B2F;}
	.st6{fill:#D5312C;}
	.st7{fill-rule:evenodd;clip-rule:evenodd;fill:#FFFFFF;}
	.st8{fill-rule:evenodd;clip-rule:evenodd;fill:#253358;}
	.st9{fill-rule:evenodd;clip-rule:evenodd;fill:#E30613;}
	.st10{fill-rule:evenodd;clip-rule:evenodd;fill:#0D4B8F;}
</style>
<g>
	<path class="st7" d="M43.6,21.4h33.8c4,0,7.2,3.1,7.2,7v0.5c0,4-3.2,7.2-7.2,7.2H43.6c-4,0-7.3-3.2-7.3-7.2v-0.5
		C36.3,24.4,39.7,21.4,43.6,21.4L43.6,21.4z"/>
</g>
<g>
	<path class="st8" d="M0,59.6C0,54,5.1,50,10.9,50H54c5.7,0,10.3,4.6,10.3,10.3v0.6c0,5.7-4.6,10.3-10.3,10.3H24.7
		c-1.5,0-2.8,1.3-2.8,2.8v14.4c0,5.7-4.6,10.3-10.3,10.3h-1.3C4.6,98.7,0,94.1,0,88.4V59.6L0,59.6z"/>
	<path class="st8" d="M76.2,88.4L76,31.1c0-5.7,4.4-10.5,10.3-10.5h1.1c5.7,0,10.3,4.8,10.3,10.5L98,88.4c0,5.7-4.6,10.3-10.3,10.3
		h-1.3C80.6,98.7,76.2,94.1,76.2,88.4L76.2,88.4z"/>
	<path class="st8" d="M207.6,27.5l23.1,37.7c5.2,8.1,6.3,10.2,6.3,16.2c0,9.4-8.7,16.6-16.2,16.6h-31.2c-5.7,0-10.3-3.9-10.3-9.6
		v-0.6c0-5.7,4.6-10.3,10.3-10.3h19.2c1.1,0,1.8-0.2,2.2-0.9c0.4-0.9,0.2-1.3-0.4-2.2l-13.7-22c-0.2-0.4-0.4-0.9-0.7-0.9
		c-0.6,0-0.7,0.6-0.9,0.9l-20.9,35.8c-3.3,5.7-7.2,9.8-12.7,9.8h-40.1c-7.8,0-15.3-7.4-15.3-15.1V31.1c0-5.7,4.6-10.3,10.3-10.3h1.3
		c5.7,0,10.3,4.6,10.3,10.3v42.3c0,1.5,1.1,2.8,2.8,2.8H151c3.5,0,5.5-1.3,7.4-4.4l26.8-44.3c2.6-4.2,6.6-6.5,11.4-6.5
		C201.2,21,204.8,23,207.6,27.5L207.6,27.5z"/>
	<path class="st9" d="M10.5,22.3h48.7c5.7,0,10.3,4.4,10.3,10.2v0.7c0,5.7-4.6,10.3-10.3,10.3H10.5C4.8,43.5,0,38.9,0,33.2v-0.7
		C0,26.7,4.8,22.3,10.5,22.3L10.5,22.3z"/>
</g>
</svg>
