<?xml version="1.0" encoding="utf-8"?>
<!-- Generator: Adobe Illustrator 24.0.0, SVG Export Plug-In . SVG Version: 6.00 Build 0)  -->
<svg version="1.1" id="Capa_1" xmlns="http://www.w3.org/2000/svg" xmlns:xlink="http://www.w3.org/1999/xlink" x="0px" y="0px"
	 viewBox="0 0 237 47.3" style="enable-background:new 0 0 237 47.3;" xml:space="preserve">
<style type="text/css">
	.st0{fill-rule:evenodd;clip-rule:evenodd;fill:#F3912D;}
	.st1{fill:#E31119;}
	.st2{fill:#1D1D1B;}
	.st3{fill:#0B233F;}
	.st4{fill-rule:evenodd;clip-rule:evenodd;fill:#0B233F;}
	.st5{fill-rule:evenodd;clip-rule:evenodd;fill:#C30B2F;}
	.st6{fill:#D5312C;}
	.st7{fill-rule:evenodd;clip-rule:evenodd;fill:#FFFFFF;}
	.st8{fill-rule:evenodd;clip-rule:evenodd;fill:#253358;}
	.st9{fill-rule:evenodd;clip-rule:evenodd;fill:#E30613;}
	.st10{fill-rule:evenodd;clip-rule:evenodd;fill:#0D4B8F;}
</style>
<g>
	<path class="st2" d="M207.2,36.3c-3.9,0-7.1,0.3-8.4,0.5c0.4,0.6,0.9,1.1,1.3,1.6c1.6,0,6.3,0.2,14.8,1.7c7.1,1.2,11.1,1.4,13,1.4
		c1.9-1.4,3.7-3.1,5-5c-1.9,0.3-5.6,0.8-8.2,0.8C221.5,37.2,212.3,36.4,207.2,36.3z"/>
	<path class="st2" d="M200.6,38.8c3.8,4,9.3,6.5,15.2,6.5c4.1,0,8-1.2,11.3-3.2c-2.1-0.1-6-0.4-12.3-1.5
		C207.1,39.2,202.6,38.9,200.6,38.8z"/>
	<path class="st2" d="M236.3,18.7l-11.3,2.9l1.2-2.3c2.7-0.4,6.1-1.3,9.3-3c-0.2-0.6-0.5-1.2-0.8-1.8c-2.8,1.4-5.2,2-7.1,2.3
		l1.8-3.3l4.6-0.3c-0.4-0.6-0.8-1.3-1.3-1.9h-5.3l2.1-3.3c-0.4-0.4-0.9-0.7-1.3-1l-4.3,5.9l-1.2-2.5l0.2-0.9l4-3.4
		c-0.4-0.3-0.9-0.5-1.3-0.7l-4.3,2.3l-2.2-4.3c-0.6-0.1-1.3-0.2-1.9-0.2l2.3,6l-0.7,0.6L215.2,3c-0.2,0-0.4,0-0.6,0L212,8.6L209.2,4
		c-0.9,0.3-1.8,0.6-2.6,1l-0.1,3.7l-3.9-1.1c-0.8,0.6-1.6,1.4-2.3,2.1l4.7,5.8l-1.3,0.1l-4.2-4.9c-0.5,0.6-1,1.3-1.4,2l2.6,3.2
		l-4.5,0.3c-1,2.5-1.6,5.2-1.6,8c0,4.6,1.5,8.8,3.9,12.3c1-0.2,4.4-0.6,8.6-0.6c5.1,0,14.3,0.7,17.7,0.7c2.9,0,7-0.6,8.7-1
		c2.1-3.3,3.4-7.2,3.4-11.4C237,22.3,236.7,20.4,236.3,18.7z M225.7,13.6l1.2-0.1l-2,3.3c-0.5,0-0.8,0-1.1-0.1L225.7,13.6z
		 M223.2,19.6l-1.7,2.8l-1.6,0.4l2-3.2C222.3,19.6,222.7,19.6,223.2,19.6z M221.2,13.9l0.6,1.6l-3.5,4.8l-0.1-4.3L221.2,13.9z
		 M211.7,15.1l0.5,3.8l-1.5-1.5L211.7,15.1z M209.6,9.6l-0.9-0.1l-0.1-1.6L209.6,9.6z M210.6,12.2l-1.6,2.8l-0.2-3.4L210.6,12.2z
		 M203.1,9.8l3.2,1l0.2,2.3L203.1,9.8z M204,17.6l3.1-0.1l1.1,0.9l-3,2.4l-2.9-1.1L204,17.6z M200.7,17.7l-0.8,1.1l-2.6-1
		L200.7,17.7z M197.6,19.9l1.1,0.5l-1.5,2C197.3,21.6,197.4,20.7,197.6,19.9z M214,32.8c-5.2-0.8-10.4-1.5-15.5-1.6
		c-0.9-2.2-1.3-4.5-1.3-7c0-0.1,0-0.1,0-0.2l1,0h0.7l2.1-2.6l2.4,1.2l-1.2,1.6l2.7,0.1l5.2-4.3l1.3,1.5l-5.2,2.9l4.3,0.2l2.7-1
		l1,1.1L214,32.8z M215,19.2l-0.3-1.4l1.2-0.6l0,2L215,19.2z M216.1,14.2l-1.8,1.3l-1-4l1.8-4.2l1.6,3.4L216.1,14.2z M232.1,34.8
		c-4.5-0.1-9-0.7-13.6-1.3c-1-4-0.5-8.1-0.5-8.1l6.9-1.7l1,1.4l1.8-0.1l-0.5-1.9l2.7-0.7c0.5,0.7,1.7,2.3,3,3l1.4-0.7
		c0,0-1.3-1.7-1.7-3l2.3-0.6c0.2,1,0.2,2,0.2,3.1C235.2,28.1,234.1,31.8,232.1,34.8z"/>
	<path class="st2" d="M94.8,35c0,2-1,1.9-1.9,1.9c-0.7,0-2.9,0.1-4.5-3.7c0-0.5,0-1.6,1.4-1.9c0,0,6.7-2.6,7.4-3
		c0.8-0.4,0.9-1.7,0.9-2.8c0-1.1-1.6-9.2-7.9-9.2c-6.3,0-8.7,6.7-8.7,14.1c0,7.3,3.5,12.9,9.7,12.9c6.3,0,7.2-4,7.2-6.5
		C98.5,34,94.8,33.3,94.8,35z M87.2,28.1c-1-7.4,0.7-8.2,1.5-8.2c0.9,0,2.8,2.7,2.8,5.3c0,2.6-2.2,3.4-3.3,3.4
		C87.8,28.6,87.2,28.6,87.2,28.1z"/>
	<path class="st2" d="M29.9,40.7c-1-0.6-1.2-1.3-1.2-1.9c0,0,0-18.1,0-19.9c0-1.7-0.8-2.3-1.3-2.3c-1.2,0-6.6,2.3-7.8,3
		c-1.3,0.7-0.3,1.5,0.3,1.8c0.6,0.3,1.1,0.6,1.1,2.1c0,1.5,0,14.6,0,15.2c0,0.7-0.2,1.3-1.2,1.9c-0.2,0.1-0.3,0.3-0.4,0.5
		c-0.1-0.2-0.3-0.4-0.6-0.6c-1.4-1.1-1.3-1.5-1.3-2.8c0-1.3,0-25.9,0-27.4s-0.1-2.6,0.7-2.6c1.9,0,3,3.7,4,6.2
		c1.1,2.5,4.5,1.2,4.1-0.6c-0.4-1.7-1.2-6.7-1.5-8.4C24.6,3.2,24,2,23.3,2c-0.7,0-1.8,1.1-1.8,1.1l-8.2,0.1L5.1,3.1
		C5.1,3.1,4,2,3.3,2C2.6,2,2,3.2,1.6,4.9C1.2,6.6,0.4,11.6,0,13.3c-0.4,1.7,3.1,3.1,4.1,0.6c1.1-2.5,2.1-6.2,4-6.2
		c0.8,0,0.7,1.2,0.7,2.6s0,26.1,0,27.4c0,1.3,0.2,1.7-1.3,2.8c-1.4,1.1-0.2,2.2,2.1,2.2h7.1c1.4,0,2.5-0.4,2.7-1
		c0.2,0.5,0.7,1,1.3,1H29C30,42.7,30.9,41.3,29.9,40.7z"/>
	<path class="st2" d="M124.7,40.7c-1-0.6-1.2-1.3-1.2-1.9c0,0,0-31.1,0-32.9c0-1.7-0.8-2.3-1.3-2.3c-1.2,0-6.6,2.3-7.8,3
		c-1.3,0.7-0.3,1.5,0.3,1.8c0.6,0.3,1.1,0.6,1.1,2.1c0,0.5,0,3.5,0,7.4c-0.5-0.7-1.4-1.1-2.7-1.1c-4.6,0-3.8,3.3-6.4,4
		c0-0.9,0-1.6,0-1.8c0-1.7-0.8-2.3-1.3-2.3c-1.2,0-6.6,2.3-7.8,3c-1.3,0.7-0.3,1.5,0.3,1.8c0.6,0.3,1.1,0.6,1.1,2.1
		c0,1.5,0,14.6,0,15.2c0,0.7-0.2,1.3-1.2,1.9c-1,0.6-0.1,2,1,2h8.1c1.1,0,1.9-1.4,1-2c-1-0.6-1.2-1.3-1.2-1.9c0,0,0-4.9,0-9.9
		c0.6-2,2.1-5.9,4.3-5.9c1,0,0.7,2.6,2.9,2.6c0.5,0,1.3-1.1,1.8-2.5c0,7.4,0,15.3,0,15.7c0,0.7-0.2,1.3-1.2,1.9c-1,0.6-0.1,2,1,2
		h8.1C124.8,42.7,125.7,41.3,124.7,40.7z"/>
	<path class="st2" d="M165.8,40.7c-1-0.6-1.2-1.3-1.2-1.9c0-1.3,0.4-21.9-7.2-21.9c-2.4,0-2.8,1.6-4,2.3c0-0.1,0-0.2,0-0.3
		c0-1.7-0.8-2.3-1.3-2.3c-1.2,0-6.6,2.3-7.8,3c-1.3,0.7-0.3,1.5,0.3,1.8c0.6,0.3,1.1,0.6,1.1,2.1c0,1.5,0,14.6,0,15.2
		c0,0.6-0.2,1.3-1,1.9c-0.1-0.8-0.8-1.8-1.5-1.8c-0.8,0-1-0.7-1-1.5c0-0.9,0-1.3-0.8-10.8c-0.8-9.5-4.8-9.3-9.1-9.3
		c-4.2,0-7.9,2-7.9,5.3c0,3.3,2.1,3.6,3.8,3.6c1.6,0,2.9-0.4,2.9-2.5c0-2.1-1.3-2.8-1.3-2.8s0.7-0.2,2.2-0.2c1.5,0,2.4,2.4,2.4,4.5
		c0,1.7-3.1,1.8-4.2,2.4c-4,2-6,5.2-6,9.2c0,4,2.3,6,3.1,6c0.8,0,5.2,0,6.7,0c1.5,0,2.2-0.8,2.7-0.8c0.5,0,0.8,0.8,1.3,0.8
		c0.6,0,1.4,0,4.2,0c1.3,0,1.9-0.2,2.2-0.5c0.3,0.3,0.6,0.5,1,0.5h8.1c1.1,0,1.9-1.4,1-2c-1-0.6-1.2-1.3-1.2-1.9c0,0,0-9.1,0-15
		c0-0.6,0.8-1.5,1.6-1.5c2,0,2.7,14.4,2.7,16.5c0,0.7-0.2,1.3-1.2,1.9c-1,0.6-0.1,2,1,2h7.3C165.9,42.7,166.7,41.3,165.8,40.7z
		 M134.7,37.4c0,0.9-0.2,1.9-1.3,1.9c-1.2,0-2.3-0.4-2.3-4.2c0-3.9,1.6-5.4,3.7-5.4C134.7,29.7,134.7,36.5,134.7,37.4z"/>
	<path class="st2" d="M73.5,16.2c-2.1,0-1.7,0.9-3.3,1.4c0-6.4,0-11.8,0-12.3c0-1.7-0.8-2.3-1.3-2.3c-1.2,0-6.1,2.3-7.3,3
		c-1.3,0.7-0.3,2,0.3,2.3c0.6,0.3,0.6,0.6,0.6,2.1c0,1.3,0,25.6,0,28.8c0,0.8,0,1.4,0.1,1.9c-0.1-0.1-0.2-0.3-0.4-0.4
		c-1-0.6-1.2-1.3-1.2-1.9c0-1.3,0.4-21.9-7.2-21.9c-2.8,0-2.9,2.1-4.6,2.5c-0.7-1.5-2.1-2.8-4.3-2.8c-3.8,0-3.3,2.2-5.2,2.7
		c0-0.2,0-0.3,0-0.4c0-1.7-0.8-2.3-1.3-2.3c-1.2,0-6.6,2.3-7.8,3c-1.3,0.7-0.3,1.5,0.3,1.8c0.6,0.3,1.1,0.6,1.1,2.1
		c0,1.5,0,14.6,0,15.2c0,0.7-0.2,1.3-1.2,1.9c-1,0.6-0.1,2,1,2h8.1c1.1,0,1.9-1.4,1-2c-1-0.6-1.2-1.3-1.2-1.9c0,0,0-8.5,0-14.4
		c0-1.5,1.1-2.5,1.9-2.5c0.9,0,1.6,0.6,1.6,2.3c0,1.5,0,13.9,0,14.6c0,0.7-0.2,1.3-1.2,1.9c-1,0.6-0.1,2,1,2h7.3c1.1,0,1.9-1.4,1-2
		c-1-0.6-1.2-1.3-1.2-1.9c0,0,0-15.4,0-15.5c0-0.5,0.7-1,1.4-1c2,0,2.7,14.4,2.7,16.5c0,0.7-0.2,1.3-1.2,1.9c-1,0.6-0.1,2,1,2h7.3
		c0.7,0,1.4-0.7,1.4-1.3c0.3,1.4,1,1.3,1.4,1.3c0.6,0,1.1,0.3,2.7-2.3c0.3-0.5,1-0.2,1.8,0.8c0.9,1,1.3,2.1,5,2.1s7.6-0.6,7.6-13.8
		C81.3,19.1,75.6,16.2,73.5,16.2z M72.3,36.8c-1.9,0-2.2-5.9-2.2-7.9c0-2,0.7-8.7,2.4-8.7c1.7,0,2.5,5.8,2.5,8.7
		C75,31.8,74.3,36.8,72.3,36.8z"/>
	<path class="st2" d="M185.2,40.7c-1-0.6-1.2-1.3-1.2-1.9c0,0,0-30.3,0-32c0-1.7-0.8-2.3-1.3-2.3c-0.8,0-3.4,1.6-5.5,2.5
		c-0.9,0.4-1.9,0.3-2.3,0.5c-1.3,0.7-0.3,1.5,0.3,1.8c0.6,0.3,1.1,0.6,1.1,2.1c0,0.5,0,3.6,0,7.6c-0.5-0.5-1.8-1.5-3.7-1.5
		c-2.5,0-7.6,4.7-7.6,14.7c0,4.1,1.3,7.1,2,9c0.8,1.8,1.6,1.5,2.9,1.5c1,0,14.3,0,14.3,0C185.3,42.7,186.2,41.3,185.2,40.7z
		 M174.5,38.5c-0.9,0-2.8-2.2-2.8-7.8c0-5.6,1.4-8.7,2.1-8.7c1.1,0,2.9,3.1,2.9,8.6C176.7,36,175.4,38.5,174.5,38.5z"/>
</g>
</svg>
