<?xml version="1.0" encoding="utf-8"?>
<!-- Generator: Adobe Illustrator 24.0.0, SVG Export Plug-In . SVG Version: 6.00 Build 0)  -->
<svg version="1.1" id="Capa_1" xmlns="http://www.w3.org/2000/svg" xmlns:xlink="http://www.w3.org/1999/xlink" x="0px" y="0px"
	 viewBox="0 0 236.9 121.7" style="enable-background:new 0 0 236.9 121.7;" xml:space="preserve">
<style type="text/css">
	.st0{fill-rule:evenodd;clip-rule:evenodd;fill:#F3912D;}
</style>
<g>
	<path class="st0" d="M29.9,40.9c0.5,0.1,0.9,0.2,1.4,0.4c-8.9,19.8-9.7,39.4,9.3,44.6c5.4,1.5,11.1,1.4,16.5,0
		c45.8-11.7,47.1-12,80.6-21.4c-6.4-0.1-12.9-0.2-19.2-0.3c-1-6.7-2-13.4-2.9-20.2c-2.5,6.5-4.9,13.1-7.4,19.6
		c-5,0.2-9.9,0.4-14.9,0.5c7.2-21.3,14.4-42.5,21.6-63.7c5.1,0.1,10.3,0.1,15.4,0.2c-4.2,12.7-4.2,12.7-3.7,13.4
		c3.9-4.4,7.8-8.9,11.7-13.3C153,0.5,167.8,0.2,182.5,0c-1.1,3.8-2.2,7.6-3.2,11.4c-5.3,0.3-10.6,0.6-15.9,0.9
		c-3.3,9.7-3.3,9.7-3.4,11.9c3.6,0.2,7.2,0.5,10.9,0.7c0.1,7.3,0,4.6,0.1,11.9c-5.5,0.5-11,1-16.5,1.5c-1.5,4.4-2.9,8.8-4.3,13.2
		c4.8,0.2,9.7,0.4,14.5,0.5c-0.5,1.7-1.1,3.4-1.6,5.2c1,0,2,0,3,0.1c23.5-6.3,47.1-12.4,70.7-18.6c-59.8,25.9-119.5,51.9-179.3,77.9
		C-13.2,139.7-14.2,81.6,29.9,40.9L29.9,40.9z M33.3,64.1C40.6,42.8,47.9,21.4,55.2,0c5.4,0,10.7,0,16.2,0
		c0.1,7.8,0.2,15.5,0.4,23.3c2.7-7.7,5.5-15.2,8.2-22.8c4.7-0.2,9.4-0.4,14.1-0.5C87,21.4,80,42.8,73,64.1c-5.4,0-10.9,0-16.2,0
		c-0.2-7.5-0.4-15.1-0.5-22.5c-6.5,17.7-6.5,17.7-7.7,22.5C43.5,64.1,38.4,64.1,33.3,64.1L33.3,64.1z M75.5,64.1
		c7.2-21.2,14.4-42.4,21.7-63.6c5.1,0,10.3,0,15.4,0c-7.5,21-14.9,41.9-22.3,62.9C85.3,63.7,80.4,63.9,75.5,64.1L75.5,64.1z
		 M133.1,57.7c-2.9-24.4-2.9-24.4-2.9-30c20.6-24,20.6-24,22-24.5C145.8,21.3,139.4,39.5,133.1,57.7L133.1,57.7z"/>
</g>
</svg>
