<?xml version="1.0" encoding="utf-8"?>
<!-- Generator: Adobe Illustrator 24.0.0, SVG Export Plug-In . SVG Version: 6.00 Build 0)  -->
<svg version="1.1" id="Capa_1" xmlns="http://www.w3.org/2000/svg" xmlns:xlink="http://www.w3.org/1999/xlink" x="0px" y="0px"
	 viewBox="0 0 237 119.3" style="enable-background:new 0 0 237 119.3;" xml:space="preserve">
<style type="text/css">
	.st0{fill-rule:evenodd;clip-rule:evenodd;fill:#F3912D;}
	.st1{fill:#E31119;}
	.st2{fill:#1D1D1B;}
	.st3{fill:#0B233F;}
	.st4{fill-rule:evenodd;clip-rule:evenodd;fill:#0B233F;}
	.st5{fill-rule:evenodd;clip-rule:evenodd;fill:#C30B2F;}
	.st6{fill:#D5312C;}
	.st7{fill-rule:evenodd;clip-rule:evenodd;fill:#FFFFFF;}
	.st8{fill-rule:evenodd;clip-rule:evenodd;fill:#253358;}
	.st9{fill-rule:evenodd;clip-rule:evenodd;fill:#E30613;}
	.st10{fill-rule:evenodd;clip-rule:evenodd;fill:#0D4B8F;}
</style>
<g>
	<path class="st7" d="M43.6,21.4h33.8c4,0,7.2,3.1,7.2,7v0.5c0,4-3.2,7.2-7.2,7.2H43.6c-4,0-7.3-3.2-7.3-7.2v-0.5
		C36.3,24.4,39.7,21.4,43.6,21.4L43.6,21.4z"/>
</g>
<g>
	<path class="st10" d="M222.9,60.9c-6-1-11.3-1.2-11.3-4.5c0-1.2,0.7-2.6,1.9-3.4c1-0.8,3.7-1.1,5.6-1.1c1.9,0,3.8,1,5,2.2
		c0.7,0.9,1.6,2.3,1.8,3.7l0,0h9.7l0,0c-0.2-3.6-1.8-7.1-4.5-9.1c-2.7-2-6.2-4.4-11-4.4c-4.6,0-9.1,0.1-12.3,2.5
		c-3.1,2.3-5.4,6.1-5.4,9.4c0,1.9-0.1,4.2,0.6,5.6c0.8,1.4,3.1,4.2,5,5.3c2.6,1.5,8.5,2,11.8,2.9c2.7,0.7,6,0.8,6.7,3.5
		c0.4,1.6-0.1,3.1-1.5,4c-1.4,0.9-3.5,1.6-5.8,1.6c-2.4,0-4.8-0.7-5.9-2.2c-1-1.4-1.6-2.7-2.4-4.8l0,0h-9.7l0,0
		c0.2,4.5,2.7,8.8,5.8,11.3c3,2.4,7,3.6,12.1,3.6c5.1,0,9.6-0.9,12.9-3.2c3.2-2.3,5-6.7,5-10.3c0-3.1-0.9-5.5-2.3-7.4
		C231.5,62.4,226.4,61.4,222.9,60.9L222.9,60.9L222.9,60.9L222.9,60.9L222.9,60.9z"/>
	<polygon class="st10" points="96.1,85.9 106,85.9 106,45 96.1,45 96.1,85.9 96.1,85.9 96.1,85.9 	"/>
	<polygon class="st10" points="96.1,42.2 106.1,42.2 106.1,32.3 96.1,32.3 96.1,42.2 96.1,42.2 96.1,42.2 	"/>
	<path class="st10" d="M68.4,78.1L68.4,78.1L68.4,78.1c-6.8,0-12.3-5.5-12.3-12.2c0-6.6,5.5-12.2,12.2-12.2l0,0h0.1l0,0
		c6.7,0,12.2,5.5,12.2,12.2C80.6,72.6,75,78.1,68.4,78.1L68.4,78.1L68.4,78.1L68.4,78.1L68.4,78.1z M81.7,50.4
		c-3.7-2.9-8.3-4.8-13.4-5c-0.1,0-0.3,0-0.5,0c-11.3,0-20.5,9.2-20.5,20.5c0,11.3,9.2,20.6,20.5,20.6c0.2,0,0.4,0,0.5,0
		c5.1-0.1,9.8-2.1,13.4-5.6l0,0l0.1,5h9.4V32.3h-9.4V50.4L81.7,50.4L81.7,50.4L81.7,50.4z"/>
	<path class="st10" d="M129.5,78c-6.7,0-12.3-5.6-12.3-12.3c0-6.7,5.6-12.1,12.3-12.1c6.7,0,12.3,5.5,12.3,12.1
		C141.8,72.5,136.3,78,129.5,78L129.5,78L129.5,78L129.5,78L129.5,78z M143,50.2c-3.7-2.9-8.3-4.8-13.4-5c-0.1,0-0.4,0-0.5,0
		c-11.3,0-20.6,9.3-20.6,20.5c0,11.3,9.3,20.6,20.6,20.6c0.1,0,0.4,0,0.5,0c5.1-0.1,9.7-2.2,13.4-5.7l0,0v5h9.4V32.3h-9.4L143,50.2
		L143,50.2L143,50.2L143,50.2z"/>
	<path class="st10" d="M21.9,77.4C21.8,77.4,21.8,77.4,21.9,77.4c-6.8,0-12.2-5.4-12.2-12.1c0-6.7,5.4-12.1,12.1-12.1c0,0,0,0,0.1,0
		c6.7,0,12.1,5.5,12.1,12.1C34,72,28.5,77.4,21.9,77.4L21.9,77.4L21.9,77.4L21.9,77.4L21.9,77.4z M34.1,45v3.9l0,0
		c-1.9-2-2.8-2.7-5-3.5c-2-0.7-4.7-1.4-7.3-1.5c-0.1,0-0.3,0-0.4,0c-3.1,0-5.9,0.5-8.4,1.5c-2.4,1-4.7,2.6-6.7,4.8
		c-1.8,1.9-3.3,4.2-4.4,6.8c-1,2.6-1.5,5.2-1.5,8c0,6.2,2,11.4,6.1,15.4c4,4.1,9.1,6.2,15.3,6.2c0,0,0,0,0.1,0
		c2.5,0,5.2-0.7,7.4-1.5c2.2-0.8,3.8-1.5,4.8-2.9l0,0V86l9.5-0.1l-0.1-41L34.1,45L34.1,45L34.1,45L34.1,45z"/>
	<path class="st10" d="M176.9,77.4c-6.7-0.1-12.2-5.5-12.2-12.2c0-6.6,5.5-12.1,12.2-12.1c6.7,0,12.2,5.5,12.2,12.1
		C189.1,71.9,183.6,77.4,176.9,77.4L176.9,77.4L176.9,77.4L176.9,77.4L176.9,77.4z M189.1,44.8l0.1,3.9l0,0c-1.9-2-2.9-2.6-5-3.5
		c-2-0.7-4.7-1.3-7.3-1.4c-0.1,0-0.3,0-0.4,0c-3.1,0-5.9,0.5-8.4,1.5c-2.5,1-4.8,2.7-6.7,4.8c-1.9,1.9-3.4,4.2-4.4,6.9
		c-1,2.5-1.5,5.2-1.5,8c0,6.1,2.1,11.3,6.2,15.4c3.9,4,9.1,6.1,15.3,6.1c2.6,0,5.3-0.7,7.4-1.5c2.2-0.8,3.9-1.5,4.9-2.9l0,0v3.7
		l9.5-0.1l-0.1-40.9H189.1L189.1,44.8L189.1,44.8L189.1,44.8z"/>
</g>
</svg>
