<?xml version="1.0" encoding="utf-8"?>
<!-- Generator: Adobe Illustrator 24.0.0, SVG Export Plug-In . SVG Version: 6.00 Build 0)  -->
<svg version="1.1" id="Capa_1" xmlns="http://www.w3.org/2000/svg" xmlns:xlink="http://www.w3.org/1999/xlink" x="0px" y="0px"
	 viewBox="0 0 237 119.3" style="enable-background:new 0 0 237 119.3;" xml:space="preserve">
<style type="text/css">
	.st0{fill-rule:evenodd;clip-rule:evenodd;fill:#F3912D;}
	.st1{fill:#E31119;}
	.st2{fill:#1D1D1B;}
	.st3{fill:#0B233F;}
	.st4{fill-rule:evenodd;clip-rule:evenodd;fill:#0B233F;}
	.st5{fill-rule:evenodd;clip-rule:evenodd;fill:#C30B2F;}
	.st6{fill:#D5312C;}
	.st7{fill-rule:evenodd;clip-rule:evenodd;fill:#FFFFFF;}
	.st8{fill-rule:evenodd;clip-rule:evenodd;fill:#253358;}
	.st9{fill-rule:evenodd;clip-rule:evenodd;fill:#E30613;}
	.st10{fill-rule:evenodd;clip-rule:evenodd;fill:#0D4B8F;}
</style>
<g>
	<path class="st3" d="M227.9,23.5c7.8-2.6,8.8-6.8,8.8-14.5h-10c0.2,4.8-0.5,10.3-6.8,10.3H215v-19h-10.2V40H215V27.5h3.7
		c4.8-0.2,8.1,3.4,8.1,6.2V40H237v-4.2C237,28,233.4,25.2,227.9,23.5"/>
	<path class="st3" d="M145.1,9.1h-6.5v8.3h4.4c3.8,0,6.6,3.4,6.6,7.1c0,4.9-4,7.1-6.4,7.2h-8.2V0.3h-10V40h18.2
		c7.7,0,16.7-5.7,16.7-15.2C159.8,15.3,152.7,9.1,145.1,9.1"/>
	<path class="st3" d="M53.6,24.5c0-4.4,3.5-7.1,7-7.1h8.1l-6.5,10.8h9.6l6.5-10.1V9.1l-19.3,0c-8.5,0-15.3,6.9-15.3,15.5
		c0,8.5,6.9,15.5,15.3,15.5h19.3v-8.4H60.6C57,31.6,53.6,28.6,53.6,24.5"/>
	<path class="st3" d="M93.2,24.5c0-4.4,3.5-7.1,7-7.1h8.1l-6.5,10.8h9.6l6.5-10.1V9.1l-19.3,0c-8.5,0-15.3,6.9-15.3,15.5
		c0,8.5,6.9,15.5,15.3,15.5H118v-8.4h-17.8C96.6,31.6,93.2,28.6,93.2,24.5"/>
	<path class="st3" d="M40.2,14.1c0-8.8-8.3-13.8-15.6-13.8H0v39.8h9.8V8.9c2.2,0,12.8,0,12.8,0c4.3,0,7.3,2.6,7.3,7.1
		c0,3.8-2.5,7.1-7.2,7.1l-9.2,0v8.2c0,0,6.1,0,6.3,0c5.2,0.2,8.9,2.4,8.9,8.1l0,9.1l10.3,0.1V36.6c0-5.2-4.2-8.3-8.2-9.4
		C37.2,24.9,40.2,19.9,40.2,14.1"/>
	<path class="st3" d="M182.1,8.6c-11.7,0-18.4,7.3-18.4,16.3c0,9,7.4,16.2,18.4,16.2c11.4,0,18.4-7.3,18.4-16.2
		C200.5,15.8,193.9,8.6,182.1,8.6 M182.1,33.1c-4.6,0-8.3-3.7-8.3-8.3c0-4.6,3.7-8.3,8.3-8.3c4.6,0,8.3,3.7,8.3,8.3
		C190.4,29.4,186.7,33.1,182.1,33.1"/>
	<path class="st4" d="M77.4,79.9C68,83.6,36.9,93.6,18.9,117h37.5c2.8-3.8,7.2-8.3,13.6-13.3C80.4,96,88.2,91.9,100.1,87L77.4,79.9z
		"/>
	<path class="st4" d="M70.8,117h34c7.9-12.1,17.3-17.8,21.2-20.7l-17.8-6.6C101.1,92.9,84.2,100.7,70.8,117"/>
	<path class="st4" d="M126.5,67.6l25.2,14.8c24.1-10.6,56-19.9,85.1-26.9C236.8,55.5,163.3,60.1,126.5,67.6"/>
	<path class="st5" d="M9.4,56.9C56.4,64.7,95.8,78,95.8,78c23.6,7.3,59.4,22.3,82.1,32.1c12.6,5.4,21.2,9.1,21.2,9.1
		C133.8,79.1,92.9,56.9,92.9,56.9H9.4z"/>
</g>
</svg>
