<?xml version="1.0" encoding="utf-8"?>
<!-- Generator: Adobe Illustrator 24.0.0, SVG Export Plug-In . SVG Version: 6.00 Build 0)  -->
<svg version="1.1" id="Capa_1" xmlns="http://www.w3.org/2000/svg" xmlns:xlink="http://www.w3.org/1999/xlink" x="0px" y="0px"
	 viewBox="0 0 237 119.3" style="enable-background:new 0 0 237 119.3;" xml:space="preserve">
<style type="text/css">
	.st0{fill-rule:evenodd;clip-rule:evenodd;fill:#F3912D;}
	.st1{fill:#FFFFFF;}
	.st2{fill:#E31119;}
	.st3{fill:#1D1D1B;}
	.st4{fill:#0B233F;}
	.st5{fill-rule:evenodd;clip-rule:evenodd;fill:#0B233F;}
	.st6{fill-rule:evenodd;clip-rule:evenodd;fill:#C30B2F;}
	.st7{fill:#D5312C;}
	.st8{fill-rule:evenodd;clip-rule:evenodd;fill:#FFFFFF;}
	.st9{fill-rule:evenodd;clip-rule:evenodd;fill:#253358;}
	.st10{fill-rule:evenodd;clip-rule:evenodd;fill:#E30613;}
	.st11{fill-rule:evenodd;clip-rule:evenodd;fill:#0D4B8F;}
</style>
<g id="g10_1_" transform="matrix(1.25,0,0,-1.25,-929.89886,198.13952)">
	<g id="g3148_1_" transform="matrix(2.5255494,0,0,2.5255494,-1134.8854,-59.79577)">
		<path id="path100_1_" d="M784.4,86.1c-0.2,0-0.5-0.9-1-1.4c-0.3-0.3-0.8-0.3-1-0.7c-0.1-0.2-0.1-0.4-0.2-0.7
			c-0.2-0.5-0.9-0.6-0.9-1.1c0-0.6,0.6-0.7,1.1-1.2c0.4-0.3,0.4-0.6,0.9-0.8c0.4-0.1,1,0.3,1.5,0.1c0.4-0.1,0.9-0.2,1-0.7
			c0.1-0.4,0-1.1-0.5-1c-0.2,0-1,0.3-1.9,0.2c-1.2-0.1-2.5-0.5-2.6-1.8c-0.1-0.7,0.8-1.6,1.7-1.4c0.6,0.1,0.3,0.8,0.6,1.2
			c0.4,0.4,2.8-1.5,5.1-1.5c0.9,0,1.6,0.2,2.3,1c0.1,0.1,0.1,0.2,0.2,0.2c0.1,0,0.3-0.1,0.3-0.1c1.8-1.4,3.2-4.3,9.8-4.4
			c0.9,0,2-0.4,2.9-1.2c0.8-0.7,1.2-1.8,1.7-2.9c0.7-1.7,1.8-3.3,3.6-5.2c0.1-0.1,1.6-1.2,1.7-1.3c0,0,0.1-0.3,0.1-0.4
			c0-1.1-0.2-4.3,2.2-4.4c0.6,0,0.4,0.4,0.4,0.7c0,0.6-0.1,1.1,0.2,1.7c0.4,0.8-0.8,1.1-0.8,2.8c0,1.3-1,1-1.6,2
			c-0.3,0.6-0.6,0.9-0.6,1.5c0.1,3.8-0.8,6.3-1.3,7c-0.4,0.5-0.7,0.7-0.3,0.9c2,1.3,2.4,2.5,2.4,2.5c1.1,2.5,2,4.7,3.3,5.7
			c0.3,0.2,0.9,0.7,1.4,0.9c1.2,0.6,1.9,0.9,2.2,1.3c0.6,0.5,1,1.7,0.5,2.4c-0.7,0.9-1.8,0.2-2.3-0.1c-3.6-2.2-4.2-6-5.4-8.2
			c-1-1.8-2.6-3-4.1-3.1c-1.1-0.1-2.3,0.1-3.5,0.7c-2.9,1.3-4.4,2.9-4.8,3.2c-0.8,0.6-6.7,6.5-11.6,6.7c0,0-0.6,1.2-0.8,1.2
			c-0.4,0-0.7-0.7-1-0.8C785,85.2,784.6,86.1,784.4,86.1"/>
		<path id="path102_1_" d="M763.1,51.1c-0.5,0-0.8,0.4-0.8,0.8l0,15.1h-5V50.4c0-0.8,0.7-1.5,1.5-1.5h8.7c0.8,0,1.5,0.7,1.5,1.5V67
			h-5l0-15.1C763.9,51.4,763.5,51.1,763.1,51.1"/>
		<path id="path104_1_" d="M779.7,67h-7.5c-0.9,0-1.6-0.7-1.6-1.6V48.9h5V64c0,0.5,0.4,0.8,0.8,0.8c0.5,0,0.8-0.4,0.8-0.8V48.9h5V64
			c0,0.5,0.4,0.8,0.8,0.8c0.5,0,0.8-0.4,0.8-0.8V48.9h5v16.5c0,0.9-0.7,1.6-1.6,1.6H779.7"/>
		<path id="path106_1_" d="M753.9,53.4h-5v-4.6h-5V67h10c0.9,0,1.6-0.7,1.6-1.6V55.1C755.6,54.2,754.8,53.4,753.9,53.4z M750.6,64
			c0,0.5-0.4,0.9-0.8,0.9h-0.8v-9.2h0.8c0.4,0,0.8,0.3,0.8,0.9V64"/>
		<path id="path112_1_" d="M797.2,48.9v4.6h-1.7v-4.6h-5v16.5c0,0.9,0.7,1.6,1.6,1.6h8.4c0.9,0,1.6-0.7,1.6-1.6V48.9H797.2z
			 M797.2,55.7V64c0,0.5-0.4,0.8-0.8,0.8c-0.5,0-0.8-0.4-0.8-0.8v-8.3L797.2,55.7"/>
	</g>
</g>
</svg>
