<svg id="Layer_1" data-name="Layer 1" xmlns="http://www.w3.org/2000/svg" viewBox="0 0 183.99 42.26"><defs><style>.cls-1{fill:#231f20;}.cls-2{fill:#f6921e;}</style></defs><title>logo_shoelander-01</title><path class="cls-1" d="M134.22,34.71h-1.17v1.52h-.43V32.79h1.79v.37h-1.36v1.18h1.17Z"/><path class="cls-1" d="M137.87,34.81a1.74,1.74,0,0,1-.3,1.09,1,1,0,0,1-.86.38,1.07,1.07,0,0,1-.84-.37,1.7,1.7,0,0,1-.32-1v-.65a1.67,1.67,0,0,1,.31-1.08,1.13,1.13,0,0,1,1.69,0,1.68,1.68,0,0,1,.32,1.07Zm-.44-.6a1.43,1.43,0,0,0-.18-.81.59.59,0,0,0-.54-.27.61.61,0,0,0-.54.27,1.34,1.34,0,0,0-.19.79v.62a1.52,1.52,0,0,0,.18.81.63.63,0,0,0,.55.27.61.61,0,0,0,.54-.25,1.38,1.38,0,0,0,.18-.79Z"/><path class="cls-1" d="M141.45,34.81a1.74,1.74,0,0,1-.3,1.09,1,1,0,0,1-.85.38,1,1,0,0,1-.84-.37,1.59,1.59,0,0,1-.32-1v-.65a1.73,1.73,0,0,1,.3-1.08,1.14,1.14,0,0,1,1.7,0,1.68,1.68,0,0,1,.31,1.07Zm-.43-.6a1.43,1.43,0,0,0-.18-.81.69.69,0,0,0-1.09,0,1.42,1.42,0,0,0-.18.79v.62a1.52,1.52,0,0,0,.18.81.7.7,0,0,0,1.09,0,1.56,1.56,0,0,0,.18-.79Z"/><path class="cls-1" d="M144.75,33.16h-.91v3.07h-.43V33.16h-.91v-.37h2.25Z"/><path class="cls-1" d="M146.62,35.14l0,.39.07-.34.55-2.4h.36l.54,2.4.06.35.05-.4.42-2.35h.44l-.69,3.44h-.39l-.57-2.51,0-.2,0,.2-.6,2.51h-.39l-.69-3.44h.44Z"/><path class="cls-1" d="M152,34.64h-1.21v1.22h1.41v.37h-1.85V32.79h1.83v.37h-1.39v1.11H152Z"/><path class="cls-1" d="M155,35.33h-1.16l-.27.9h-.44l1.11-3.44h.37l1.11,3.44h-.45ZM154,35h.94l-.47-1.57Z"/><path class="cls-1" d="M157.92,34.84h-.6v1.39h-.44V32.79h1a.91.91,0,0,1,1,1,1,1,0,0,1-.14.56.85.85,0,0,1-.39.36L159,36.2v0h-.46Zm-.6-.37h.52a.57.57,0,0,0,.44-.18.65.65,0,0,0,.16-.47q0-.66-.6-.66h-.52Z"/><path class="cls-1" d="M163,34.84h-.61v1.39h-.43V32.79h1a1.05,1.05,0,0,1,.77.26,1.07,1.07,0,0,1,.26.77,1.11,1.11,0,0,1-.14.56.93.93,0,0,1-.4.36L164,36.2v0h-.47Zm-.61-.37h.53a.55.55,0,0,0,.43-.18.65.65,0,0,0,.16-.47q0-.66-.6-.66h-.52Z"/><path class="cls-1" d="M166.82,34.64H165.6v1.22H167v.37h-1.85V32.79H167v.37H165.6v1.11h1.22Z"/><path class="cls-1" d="M170.31,33.16h-.91v3.07H169V33.16h-.9v-.37h2.24Z"/><path class="cls-1" d="M172.91,35.33h-1.16l-.27.9H171l1.11-3.44h.37l1.11,3.44h-.45Zm-1-.37h.94l-.47-1.57Z"/><path class="cls-1" d="M175.23,36.23h-.44V32.79h.44Z"/><path class="cls-1" d="M177.1,35.86h1.35v.37h-1.79V32.79h.44Z"/><path class="cls-2" d="M68.2,13.17a1,1,0,0,0-.94,1.05v5.26a.44.44,0,0,1-.44.43H60.19a.43.43,0,0,1-.43-.43V14.13a1,1,0,0,0-1-1H49.16a1.26,1.26,0,0,0-.33,0c-.13.05-3.34,1.2-3.34,4.08a4.19,4.19,0,0,0,2.7,3.87l2.76,1,.14,0a2.58,2.58,0,0,1,2.11,2.48,2.37,2.37,0,0,1-1.73,2.41H42.38a1,1,0,0,0-1,.93,1,1,0,0,0,1,1h9.44a4.32,4.32,0,0,0,3.41-4.36,4.52,4.52,0,0,0-3.61-4.39l-2.69-1a2.2,2.2,0,0,1-1.41-2c0-1.05,1-1.72,1.59-2a1.18,1.18,0,0,1,.58-.14h8.16v12.7a1,1,0,0,0,.93,1,1,1,0,0,0,1-1V22.32a.44.44,0,0,1,.43-.44h6.63a.44.44,0,0,1,.44.44V28a1,1,0,0,0,.93,1,1,1,0,0,0,1-1V14.15A1,1,0,0,0,68.2,13.17Z"/><path class="cls-2" d="M78.35,13.15a7.92,7.92,0,1,0,7.92,7.92A7.92,7.92,0,0,0,78.35,13.15Zm0,13.9a6,6,0,1,1,6-6A6,6,0,0,1,78.35,27.05Z"/><path class="cls-2" d="M96.72,13.09H88.09a1,1,0,0,0,0,2.08h8.63a1,1,0,1,0,0-2.08Z"/><path class="cls-2" d="M96.72,20H89.78a1,1,0,0,0,0,2.08h6.94a1,1,0,1,0,0-2.08Z"/><path class="cls-2" d="M96.72,27H88.09a1,1,0,0,0,0,2.08h8.63a1,1,0,1,0,0-2.08Z"/><path class="cls-1" d="M162.75,20H155.8a1,1,0,0,0,0,2.09h6.95a1,1,0,1,0,0-2.09Z"/><path class="cls-1" d="M162.75,27h-8.64a1,1,0,1,0,0,2.09h8.64a1,1,0,1,0,0-2.09Z"/><path class="cls-1" d="M115,13.7a1,1,0,0,0-.95-.61h0a1,1,0,0,0-1,.61L107,27h-5.19a.44.44,0,0,1-.44-.43V14.67a1.54,1.54,0,0,0-1.69-1.56c-.44.05-.39.24-.39,1V28a1,1,0,0,0,1,1h7.34a1,1,0,0,0,1-.61l5.17-11.33a.24.24,0,0,1,.44,0l5.08,11.31a1,1,0,0,0,1,.62,1.11,1.11,0,0,0,.43-.09,1,1,0,0,0,.52-1.38Z"/><path class="cls-1" d="M135.23,13.09a1.08,1.08,0,0,0-1,1.1V24.55a.21.21,0,0,1-.38.13l-8.67-11a1.05,1.05,0,0,0-1.34-.22,1.07,1.07,0,0,0-.51.94V28a1.08,1.08,0,0,0,1,1.1,1,1,0,0,0,1.1-1V17.27a.14.14,0,0,1,.25-.09l8.8,11.53a1,1,0,0,0,.8.37,1.13,1.13,0,0,0,.53-.14,1.1,1.1,0,0,0,.51-1V14.13A1,1,0,0,0,135.23,13.09Z"/><path class="cls-1" d="M144.1,13.38h-4.81a1,1,0,0,0-1,1V28a1,1,0,0,0,1,1h5.79a7.56,7.56,0,0,0,7.13-8C152.21,15,146.91,13.4,144.1,13.38ZM145,27h-4.27a.38.38,0,0,1-.39-.39V15.85a.39.39,0,0,1,.39-.39h3.37c.24,0,6,.12,6,5.62S145.61,27,145,27Z"/><path class="cls-1" d="M178.28,27.44,174.89,22a.57.57,0,0,1,.13-.74,4.59,4.59,0,0,0,1.75-3.75c0-3.1-2.82-4.24-4.3-4.41H154.16a1.08,1.08,0,0,0-1.1,1,1,1,0,0,0,1.05,1.1h18.18c.36.06,2.39.44,2.39,2.33A2.52,2.52,0,0,1,173,20h-5a1,1,0,0,0-1,1V28a1.08,1.08,0,0,0,1,1.1,1,1,0,0,0,1.1-1V22.59a.47.47,0,0,1,.46-.46h2.83a.44.44,0,0,1,.39.22l3.88,6.24a1,1,0,0,0,.89.49,1,1,0,0,0,.6-.19A1.09,1.09,0,0,0,178.28,27.44Z"/><path d="M20.67,6A15.13,15.13,0,1,0,33.53,29.06a15,15,0,0,0,2.28-7.95A15.13,15.13,0,0,0,20.67,6Zm7.85,23.08H31.1a13.08,13.08,0,0,1-20.85,0h7.16a4.88,4.88,0,0,0,4.88-4.87H7.92a13.14,13.14,0,1,1,25.51,0H23.65A4.87,4.87,0,0,0,28.52,29.06Z"/><path d="M23.65,13.16V23.57h4.92V18.08A4.92,4.92,0,0,0,23.65,13.16Z"/><path d="M17.42,18.7h-5a4.88,4.88,0,0,0,4.88,4.87h5A4.87,4.87,0,0,0,17.42,18.7Z"/><path d="M12.54,18.08H23.08V13.2H17.42A4.88,4.88,0,0,0,12.54,18.08Z"/></svg>