<svg id="Layer_1" data-name="Layer 1" xmlns="http://www.w3.org/2000/svg" viewBox="0 0 30.27 30.27"><defs><style>.cls-1{fill:#f6921e;}</style></defs><title>logo-shoelander-icon</title><path class="cls-1" d="M15.13,0A15.14,15.14,0,1,0,28,23.08a15,15,0,0,0,2.28-7.95A15.14,15.14,0,0,0,15.13,0ZM23,23.08h2.58a13.07,13.07,0,0,1-20.85,0h7.16a4.88,4.88,0,0,0,4.88-4.87H2.38a13.13,13.13,0,1,1,25.89-3.08,13.05,13.05,0,0,1-.38,3.08H18.11A4.87,4.87,0,0,0,23,23.08Z"/><path class="cls-1" d="M18.11,7.18V17.59H23V12.1A4.92,4.92,0,0,0,18.11,7.18Z"/><path class="cls-1" d="M11.88,12.72h-5a4.88,4.88,0,0,0,4.88,4.87h5A4.87,4.87,0,0,0,11.88,12.72Z"/><path class="cls-1" d="M7,12.1H17.54V7.23H11.88A4.88,4.88,0,0,0,7,12.1Z"/></svg>